<svg id="Capa_1" enable-background="new 0 0 512 512" height="512" viewBox="0 0 512 512" width="512" xmlns="http://www.w3.org/2000/svg"><g><g><path d="m394.62 171.123c0-76.558-62.062-138.62-138.62-138.62s-138.62 62.062-138.62 138.62c0 39.843 16.81 74.391 43.723 103.108 19.009 20.283 30.797 46.095 34.017 73.455 1.025 8.707 8.276 15.334 17.043 15.334h87.673c8.767 0 16.018-6.628 17.043-15.334 3.22-27.361 15.008-53.173 34.017-73.455 26.914-28.717 43.724-63.265 43.724-103.108z" fill="#ffe07d"/></g><g><path d="m297.116 38.703c34.836 25.179 57.503 66.152 57.503 112.42 0 39.843-16.81 74.391-43.723 103.108-11.9 12.698-20.971 27.563-26.881 43.619-10.042 27.283-36.338 45.171-65.41 45.171h-24.12c.239 1.55.451 3.105.635 4.666 1.025 8.707 8.276 15.334 17.043 15.334h87.673c8.767 0 16.018-6.628 17.043-15.334 3.22-27.361 15.008-53.173 34.017-73.456 26.914-28.718 43.723-63.265 43.723-103.108.001-62.241-41.021-114.902-97.503-132.42z" fill="#ffd064"/></g><g><path d="m245.715 217.796-21.958 61.484c-1.019 2.853 1.096 5.854 4.126 5.854h13.995c1.498 0 2.891-.765 3.696-2.028l59.45-93.381c2.711-4.259-.348-9.833-5.397-9.833h-22.463c-4.424 0-7.513-4.383-6.025-8.549l18.715-52.404c1.488-4.166-1.601-8.549-6.025-8.549h-38.446c-2.704 0-5.115 1.7-6.025 4.246l-33.016 92.448c-1.488 4.166 1.601 8.549 6.025 8.549h31.823c1.12 0 1.901 1.109 1.525 2.163z" fill="#fff3bf"/></g><g><path d="m256 479.497c-16.59 0-30.04-13.449-30.04-30.039v-4.762h60.079v4.762c0 16.59-13.449 30.039-30.039 30.039z" fill="#a59da5"/></g><g><path d="m286.114 444.67h-60.227c-7.579 0-13.723-6.144-13.723-13.723v-67.926h87.673v67.926c0 7.579-6.144 13.723-13.723 13.723z" fill="#e2dfe2"/></g><g><path d="m259.837 363.021v27.495c0 18.863-15.291 34.154-34.154 34.154h-13.519v6.277c0 7.579 6.144 13.723 13.723 13.723h60.227c7.579 0 13.723-6.144 13.723-13.723v-67.926z" fill="#d3ced5"/></g><g><path d="m424.248 170.535c0-8.284 6.716-15 15-15h50.252c8.284 0 15 6.716 15 15s-6.716 15-15 15h-50.252c-8.284 0-15-6.715-15-15z" fill="#ffc250"/></g><g><path d="m406.084 76.646c0-5.184 2.69-10.226 7.502-13.004l43.52-25.126c7.174-4.143 16.348-1.685 20.49 5.49 4.141 7.174 1.685 16.348-5.49 20.49l-43.52 25.126c-7.174 4.143-16.348 1.685-20.49-5.49-1.364-2.362-2.012-4.941-2.012-7.486z" fill="#ffc250"/></g><g><path d="m406.084 264.425c0-2.545.648-5.124 2.012-7.486 4.142-7.175 13.316-9.633 20.49-5.49l43.52 25.126c7.175 4.143 9.633 13.314 5.49 20.49-4.142 7.175-13.316 9.633-20.49 5.49l-43.52-25.126c-4.812-2.778-7.502-7.82-7.502-13.004z" fill="#ffc250"/></g><g><path d="m87.752 170.535c0-8.284-6.716-15-15-15h-50.252c-8.284 0-15 6.716-15 15s6.716 15 15 15h50.252c8.284 0 15-6.715 15-15z" fill="#ffc250"/></g><g><path d="m105.916 76.646c0-5.184-2.69-10.226-7.502-13.004l-43.52-25.126c-7.174-4.143-16.348-1.685-20.49 5.49-4.141 7.174-1.685 16.348 5.49 20.49l43.52 25.126c7.174 4.143 16.348 1.685 20.49-5.49 1.364-2.362 2.012-4.941 2.012-7.486z" fill="#ffc250"/></g><g><path d="m105.916 264.425c0-2.545-.648-5.124-2.012-7.486-4.142-7.175-13.316-9.633-20.49-5.49l-43.52 25.126c-7.175 4.143-9.633 13.314-5.49 20.49 4.142 7.175 13.316 9.633 20.49 5.49l43.52-25.126c4.812-2.778 7.502-7.82 7.502-13.004z" fill="#ffc250"/></g><path d="m155.631 279.36c17.623 18.803 29.002 43.38 32.041 69.203 1.165 9.905 8.001 17.883 16.991 20.782v11.852c-4.002.159-7.197 3.453-7.197 7.493s3.195 7.334 7.197 7.493v10.682c-4.002.159-7.197 3.453-7.197 7.493s3.195 7.334 7.197 7.493v9.094c0 9.101 5.758 16.882 13.823 19.892.729 20.062 17.277 36.158 37.514 36.158s36.784-16.096 37.514-36.158c8.065-3.01 13.823-10.791 13.823-19.892v-9.094c4.002-.159 7.197-3.453 7.197-7.493s-3.195-7.334-7.197-7.493v-10.682c4.002-.159 7.197-3.453 7.197-7.493s-3.195-7.334-7.197-7.493v-11.852c8.99-2.899 15.826-10.877 16.991-20.782 3.039-25.823 14.418-50.399 32.041-69.203 30.358-32.393 45.751-68.809 45.751-108.237 0-9.426-.904-18.859-2.688-28.036-.79-4.065-4.718-6.719-8.794-5.931-4.065.791-6.721 4.728-5.931 8.793 1.602 8.236 2.413 16.706 2.413 25.174 0 35.493-14.028 68.458-41.696 97.979-19.799 21.126-32.582 48.723-35.992 77.708-.585 4.966-4.709 8.711-9.595 8.711h-87.674c-4.886 0-9.01-3.745-9.595-8.711-3.41-28.984-16.193-56.582-35.992-77.707-27.668-29.522-41.696-62.487-41.696-97.98 0-72.3 58.82-131.12 131.12-131.12 50.129 0 96.551 29.214 118.266 74.427 1.794 3.734 6.274 5.307 10.008 3.514 3.733-1.793 5.307-6.274 3.514-10.008-23.873-49.704-74.412-82.933-131.788-82.933-80.571 0-146.12 65.549-146.12 146.12 0 39.428 15.392 75.844 45.751 108.237zm110.349 116.83h26.356v10.669h-72.674v-10.669h11.317c4.143 0 7.5-3.358 7.5-7.5s-3.357-7.5-7.5-7.5h-11.317v-10.669h72.674v10.669h-26.356c-4.143 0-7.5 3.358-7.5 7.5s3.358 7.5 7.5 7.5zm20.133 40.98h-60.227c-3.432 0-6.224-2.792-6.224-6.223v-9.088h72.674v9.088c.001 3.431-2.791 6.223-6.223 6.223zm-30.113 34.827c-11.51 0-21.032-8.673-22.376-19.827h44.752c-1.344 11.154-10.866 19.827-22.376 19.827z"/><path d="m227.883 292.634h13.996c4.082 0 7.828-2.056 10.022-5.5l59.45-93.382c5.881-9.239-.771-21.36-11.724-21.36h-20.898l18.188-50.931c3.228-9.04-3.49-18.57-13.089-18.57h-38.446c-5.858 0-11.117 3.707-13.088 9.223l-10.032 28.091c-1.393 3.901.641 8.192 4.541 9.585 3.899 1.394 8.192-.639 9.586-4.541l9.771-27.359h36.104l-18.188 50.93c-3.23 9.041 3.486 18.572 13.087 18.572h20.455l-57.452 90.243h-7.857l20.468-57.313c2.12-5.931-2.287-12.188-8.587-12.188h-30.259l10.266-28.744c1.393-3.901-.641-8.192-4.541-9.585-3.898-1.392-8.192.64-9.586 4.541l-10.79 30.216c-3.23 9.041 3.486 18.572 13.087 18.572h23.478l-19.149 53.624c-2.763 7.726 2.979 15.876 11.187 15.876z"/><path d="m489.5 148.035h-50.252c-12.406 0-22.5 10.093-22.5 22.5s10.094 22.5 22.5 22.5h50.252c12.406 0 22.5-10.093 22.5-22.5s-10.094-22.5-22.5-22.5zm0 30h-50.252c-4.136 0-7.5-3.364-7.5-7.5s3.364-7.5 7.5-7.5h50.252c4.136 0 7.5 3.364 7.5 7.5s-3.364 7.5-7.5 7.5z"/><path d="m432.337 96.117 43.52-25.126c10.743-6.203 14.438-19.99 8.235-30.735-6.216-10.767-19.964-14.457-30.735-8.235l-43.52 25.126c-6.941 4.007-11.253 11.479-11.253 19.499 0 17.377 18.847 28.079 33.753 19.471zm-15-25.98 43.521-25.126c3.595-2.077 8.174-.84 10.243 2.744 2.068 3.582.837 8.179-2.744 10.246l-43.52 25.126c-3.591 2.071-8.172.846-10.245-2.746-2.098-3.629-.793-8.202 2.745-10.244z"/><path d="m401.602 253.188c-6.222 10.779-2.487 24.547 8.235 30.736l43.519 25.126c10.795 6.232 24.529 2.516 30.736-8.235 6.203-10.745 2.509-24.532-8.235-30.735l-43.52-25.126c-10.768-6.219-24.518-2.536-30.735 8.234zm12.99 7.5c2.062-3.57 6.634-4.829 10.245-2.745l43.52 25.126c3.581 2.068 4.813 6.664 2.745 10.245-2.073 3.589-6.654 4.819-10.245 2.745l-43.52-25.126c-3.517-2.029-4.854-6.592-2.745-10.245z"/><path d="m22.5 193.035h50.252c12.406 0 22.5-10.093 22.5-22.5s-10.094-22.5-22.5-22.5h-50.252c-12.406 0-22.5 10.093-22.5 22.5s10.094 22.5 22.5 22.5zm0-30h50.252c4.136 0 7.5 3.364 7.5 7.5s-3.364 7.5-7.5 7.5h-50.252c-4.136 0-7.5-3.364-7.5-7.5s3.364-7.5 7.5-7.5z"/><path d="m36.145 70.991 43.519 25.126c10.794 6.232 24.529 2.517 30.737-8.237 6.22-10.779 2.482-24.546-8.236-30.734l-43.52-25.126c-10.766-6.219-24.519-2.536-30.735 8.235-6.204 10.745-2.51 24.533 8.235 30.736zm4.754-23.236c2.062-3.57 6.634-4.829 10.245-2.745l43.52 25.126c3.519 2.032 4.851 6.597 2.745 10.245-2.069 3.583-6.647 4.822-10.245 2.745l-43.52-25.126c-3.581-2.067-4.812-6.663-2.745-10.245z"/><path d="m79.663 244.953-43.52 25.126c-10.744 6.203-14.438 19.991-8.235 30.735 6.215 10.765 19.962 14.457 30.735 8.235l43.52-25.126c6.941-4.007 11.253-11.479 11.253-19.499 0-17.374-18.845-28.081-33.753-19.471zm15 25.981-43.52 25.126c-3.596 2.078-8.175.838-10.244-2.745-2.067-3.582-.836-8.177 2.745-10.245l43.52-25.126c3.597-2.076 8.175-.842 10.245 2.746 2.097 3.628.792 8.201-2.746 10.244z"/><path d="m233.321 59.522c-1.092-3.996-5.219-6.35-9.212-5.258-39.304 10.737-70.396 40.269-83.17 78.998-1.604 4.861 2.033 9.851 7.123 9.851 3.149 0 6.081-1.999 7.121-5.153 11.195-33.939 38.439-59.819 72.879-69.227 3.996-1.091 6.35-5.215 5.259-9.211z"/></g></svg>